<svg width="156" height="150" viewBox="0 0 156 150" fill="none" xmlns="http://www.w3.org/2000/svg">
<path fill-rule="evenodd" clip-rule="evenodd" d="M6.91066 121.426C7.12715 122.447 7.46541 123.442 7.91191 124.389C8.38549 125.37 8.34489 126.52 7.81043 127.467L5.90256 131.019H5.90932C5.3681 132.034 5.65224 133.285 6.57909 133.962L10.8276 137.013C11.768 137.696 13.0738 137.541 13.8382 136.668L16.7676 133.549C17.4983 132.791 18.54 132.406 19.5887 132.507C20.6306 132.622 21.6791 132.622 22.7211 132.507C23.7967 132.365 24.8792 132.751 25.6166 133.549L28.404 136.458C29.1955 137.297 30.4877 137.419 31.4146 136.735L35.5684 133.705H35.5752C36.5155 133.035 36.8065 131.77 36.2517 130.762L34.2423 127.02C33.7281 126.094 33.6808 124.984 34.1205 124.023C34.54 123.063 34.8512 122.055 35.0541 121.026C35.2436 119.957 35.9404 119.044 36.9213 118.584L40.5611 116.852C41.5962 116.358 42.1036 115.167 41.7383 114.085L40.1417 109.187L40.1484 109.18C39.8237 108.064 38.7142 107.367 37.5641 107.57L33.3695 108.314H33.3763C32.348 108.537 31.2724 108.26 30.4807 107.57C29.7027 106.9 28.8435 106.318 27.9369 105.838C26.9897 105.304 26.3538 104.363 26.205 103.294L25.6705 99.2959L25.6638 99.2892C25.5758 98.0985 24.5813 97.1716 23.3839 97.1783H18.1881C17.0448 97.1783 16.0705 98.0172 15.915 99.1537L15.3467 103.382V103.375C15.1843 104.431 14.5416 105.351 13.6148 105.872C12.7082 106.399 11.8694 107.029 11.1049 107.746C10.3134 108.497 9.21052 108.821 8.14176 108.612L4.17723 107.901C3.07449 107.759 2.0326 108.429 1.71462 109.491L0.118004 114.389V114.396C-0.247326 115.485 0.260075 116.669 1.30192 117.163L5.17847 119.017C6.08502 119.517 6.72122 120.404 6.91066 121.426ZM126.413 58.3996C125.702 58.3996 125.134 57.8246 125.134 57.121C125.134 56.4106 125.702 55.8356 126.413 55.8356H132.299C133.009 55.8356 133.584 56.4106 133.584 57.121C133.584 57.8246 133.009 58.3996 132.299 58.3996H126.413ZM124.403 46.9527H134.328V53.2579C134.328 54.0224 133.713 54.6516 132.941 54.6583H125.79C125.019 54.6516 124.404 54.0224 124.404 53.2579L124.403 46.9527ZM129.376 15.2569C132.853 15.2569 136.189 16.6438 138.651 19.1065C141.107 21.5691 142.487 24.9044 142.487 28.3885C142.487 33.7398 136.371 39.3482 134.727 44.3884H132.495L134.017 34.8291L135.525 32.9619C135.884 32.4072 135.762 31.6698 135.248 31.2571C134.734 30.8512 133.99 30.8918 133.53 31.3653L132.799 32.2651L132.095 31.3653C131.852 31.0541 131.48 30.8715 131.087 30.8715C130.695 30.8715 130.323 31.0541 130.086 31.3653L129.376 32.2651L128.665 31.3653C128.422 31.0541 128.057 30.8715 127.657 30.8715C127.265 30.8715 126.893 31.0541 126.656 31.3653L125.925 32.2651L125.202 31.3653C124.742 30.8918 123.997 30.8512 123.483 31.2571C122.969 31.6698 122.847 32.4072 123.206 32.9619L124.681 34.8291L126.203 44.3006H124.004C122.272 39.2604 116.244 33.6521 116.244 28.3007C116.244 21.0483 122.123 15.1693 129.376 15.1693L129.376 15.2569ZM127.279 34.6526L128.835 44.2999H129.877L131.433 34.6526L131.067 34.1994L130.357 35.0653L130.364 35.0721C130.12 35.3765 129.748 35.5592 129.356 35.5592C128.963 35.5592 128.598 35.3765 128.354 35.0721L127.624 34.1723L127.258 34.6256L127.279 34.6526ZM103.486 65.8271C102.85 66.0098 102.18 65.6783 101.943 65.0694C101.7 64.4538 101.964 63.7569 102.545 63.4593L110.393 60.3067C110.887 60.0428 111.502 60.1375 111.895 60.5299C112.294 60.9291 112.389 61.5379 112.125 62.0386L108.661 69.7307V69.7239C108.35 70.3261 107.619 70.5831 107.004 70.3058C106.381 70.0351 106.084 69.3248 106.32 68.6889L107.098 66.9569L84.5159 88.5176C84.2791 88.7746 83.9476 88.9167 83.6026 88.9167L58.8691 89.0182L40.9074 103.151C40.3594 103.591 39.5611 103.496 39.1282 102.941C38.6884 102.393 38.7832 101.595 39.3312 101.162L57.5907 86.7858C57.814 86.6166 58.0846 86.5219 58.3688 86.5084L83.1161 86.3528L105.233 65.1715L103.501 65.8615L103.486 65.8271ZM144.342 5.97386C144.788 5.47999 145.539 5.41234 146.073 5.81826C146.574 6.26476 146.642 7.02248 146.229 7.55017L144.118 10.0803H144.111C143.665 10.6216 142.86 10.696 142.319 10.2427C141.777 9.79619 141.71 8.99111 142.156 8.44982L144.267 5.90598L144.342 5.97386ZM154.368 20.5192C155.065 20.3974 155.734 20.8642 155.856 21.561C155.978 22.2578 155.518 22.9276 154.814 23.0494L151.56 23.6177V23.6244C150.904 23.6786 150.315 23.2185 150.194 22.569C150.079 21.9196 150.478 21.2904 151.114 21.1077L154.368 20.5192ZM103.656 24.5715C103.026 24.3956 102.634 23.7664 102.749 23.1237C102.857 22.481 103.439 22.021 104.089 22.0616L107.363 22.7043C108.06 22.8261 108.533 23.489 108.412 24.1859C108.29 24.8827 107.627 25.3495 106.93 25.2345L103.676 24.6459L103.656 24.5715ZM111.239 8.61901V8.62578C110.847 8.07778 110.942 7.32007 111.456 6.88711C111.97 6.45415 112.735 6.49473 113.201 6.98182L115.333 9.51198V9.50521C115.725 10.0532 115.63 10.8109 115.116 11.2439C114.602 11.6769 113.844 11.6363 113.371 11.1492L111.239 8.61901ZM127.314 1.27864C127.314 0.575048 127.889 0 128.599 0C129.303 0 129.878 0.575048 129.878 1.27864V4.58694C129.878 5.29731 129.303 5.87235 128.599 5.87235C127.889 5.87235 127.314 5.29731 127.314 4.58694V1.27864ZM30.3265 149.304V149.31C29.6161 149.31 29.0479 148.735 29.0479 148.025C29.0479 147.321 29.6161 146.746 30.3265 146.746H143.455C144.166 146.746 144.734 147.321 144.734 148.025C144.734 148.735 144.166 149.31 143.455 149.31L30.3265 149.304ZM122.118 69.7239H136.163V144.196H122.104V69.7239H122.118ZM41.7052 130.085H55.7365V144.238H41.7052V130.085ZM61.7989 109.991H75.8437V144.182H61.7989V109.942V109.991ZM81.9047 117.473H95.9495V144.183H81.9047V117.473ZM102.01 94.8563V144.181H116.021V94.8563H102.01ZM20.9759 109.666C24.4735 109.666 27.633 111.776 28.9725 115.01C30.312 118.244 29.5746 121.971 27.0986 124.448C24.6224 126.924 20.8948 127.661 17.661 126.322C14.4272 124.982 12.3165 121.823 12.3165 118.325C12.3165 113.542 16.1929 109.666 20.9759 109.666Z" fill="#2B2B2B"/>
</svg>
