<svg width="162" height="166" viewBox="0 0 162 166" fill="none" xmlns="http://www.w3.org/2000/svg">
<path fill-rule="evenodd" clip-rule="evenodd" d="M56.0831 121.787L42.7196 129.502L48.1582 138.922L62.1156 130.864C59.8255 128.028 57.8058 124.988 56.0831 121.787ZM87.8092 43.8654C112.604 34.1123 140.913 43.9599 154.292 67.1333C169.196 92.948 160.362 125.969 134.525 140.887C106.387 157.135 70.4876 145.015 57.8257 115.206H63.2735C65.146 115.206 66.8337 114.272 67.8555 112.808C73.3063 124.366 83.5308 133.098 96.1827 136.488C107.737 139.584 119.912 137.734 129.459 132.1L129.461 132.103C139.18 126.492 146.759 117.173 149.893 105.476C152.954 93.7385 151.19 81.9402 145.508 72.2067L145.504 72.2004L145.508 72.1982C133.797 51.915 108.241 44.4594 87.5167 55.1104C88.2973 51.4314 88.398 47.599 87.8092 43.8654ZM64.43 106.543H50.3465V109.623C50.3465 110.255 50.8714 110.78 51.5033 110.78H63.2732C63.9051 110.78 64.43 110.255 64.43 109.623V106.543ZM70.9465 82.0229C73.1539 82.0229 74.8648 82.5607 76.4024 84.0982C77.6828 85.379 78.4778 87.1475 78.4778 89.0941V99.4722C78.4778 103.365 75.3001 106.543 71.4065 106.543H70.0969C77.9672 130.21 105.585 140.788 127.249 128.286L127.247 128.282C146.106 117.393 152.571 93.2645 141.689 74.4093L141.686 74.4115C133.42 60.0948 116.996 52.4079 100.707 55.279C95.1956 56.2503 89.9861 58.3788 85.4177 61.4679C85.061 62.2495 84.6726 63.0135 84.2539 63.7587C81.7823 68.1581 78.2583 71.8898 74.023 74.6133L70.9465 82.0229ZM74.0511 96.4963H40.7254V99.4718C40.7254 100.922 41.9199 102.116 43.37 102.116H71.4069C72.857 102.116 74.0511 100.922 74.0511 99.4718V96.4963ZM40.7254 92.0696H74.0511V89.0941C74.0511 87.644 72.857 86.4496 71.4069 86.4496H43.37C41.9199 86.4496 40.7254 87.6437 40.7254 89.0941V92.0696ZM25.7152 22.8416C26.7706 23.4528 27.1303 24.8037 26.5194 25.8591C25.9081 26.9141 24.5572 27.2742 23.5018 26.6633L16.3542 22.5365C15.2988 21.9252 14.9388 20.5744 15.55 19.519C16.1613 18.4639 17.5121 18.1039 18.5675 18.7148L25.7152 22.8416ZM91.2661 26.6633C90.2111 27.2698 88.8635 26.9057 88.2574 25.8506C87.651 24.7956 88.0151 23.448 89.0701 22.8419L96.2178 18.7152C97.2728 18.1087 98.6204 18.4728 99.2264 19.5278C99.8329 20.5829 99.4688 21.9304 98.4138 22.5365L91.2661 26.6633ZM37.5109 13.4666C38.1221 14.522 37.7621 15.8728 36.7067 16.4841C35.6513 17.095 34.3004 16.7353 33.6892 15.6799L29.5624 8.53227C28.9511 7.47687 29.3111 6.12599 30.3665 5.51474C31.4219 4.90385 32.7728 5.26352 33.3841 6.31892L37.5109 13.4666ZM79.9319 15.6799C79.3207 16.7349 77.9698 17.095 76.9144 16.4841C75.859 15.8728 75.499 14.522 76.1102 13.4666L80.237 6.31892C80.8483 5.26352 82.1991 4.90385 83.2545 5.51474C84.3099 6.12599 84.6696 7.47687 84.0587 8.53227L79.9319 15.6799ZM67.1897 10.7537C66.8746 11.9331 65.6628 12.6336 64.4835 12.3186C63.3041 12.0035 62.6036 10.7917 62.9187 9.61239L65.0549 1.64027C65.3699 0.460923 66.5817 -0.239602 67.7611 0.0754312C68.9404 0.390465 69.641 1.60227 69.3259 2.78162L67.1897 10.7537ZM51.5465 9.61276C51.8615 10.7921 51.161 12.0039 49.9816 12.3189C48.8023 12.634 47.5905 11.9335 47.2754 10.7541L45.1392 2.78199C44.8241 1.60264 45.5247 0.390833 46.704 0.0757999C47.8834 -0.239234 49.0952 0.461292 49.4102 1.64064L51.5465 9.61276ZM89.8846 82.6256L100.327 74.4753L104.065 78.2133C104.862 79.0105 106.116 79.0721 106.985 78.3989L122.163 68.714C123.189 68.0599 123.491 66.6973 122.837 65.6706C122.183 64.644 120.82 64.3423 119.794 64.9963L105.944 73.8335L102.079 69.9679L102.073 69.9734C101.297 69.1954 100.044 69.1013 99.1564 69.7948L87.17 79.1499C86.2101 79.8995 86.04 81.2854 86.7896 82.2453C87.5388 83.2048 88.9248 83.3752 89.8846 82.6256ZM125.86 74.7487V108.044H116.095V81.4869C116.095 80.2644 115.104 79.2735 113.881 79.2735C112.659 79.2735 111.668 80.2644 111.668 81.4869V108.044H102.358V89.6836C102.358 88.4611 101.367 87.4703 100.144 87.4703C98.9217 87.4703 97.9309 88.4611 97.9309 89.6836V108.044H90.3336V98.3666C90.3336 97.1441 89.3427 96.1533 88.1202 96.1533C86.8977 96.1533 85.9069 97.1441 85.9069 98.3666V108.044H84.3428C83.1203 108.044 82.1294 109.035 82.1294 110.257C82.1294 111.48 83.1203 112.471 84.3428 112.471H131.851C133.074 112.471 134.065 111.48 134.065 110.257C134.065 109.035 133.074 108.044 131.851 108.044H130.287V74.7487C130.287 73.5262 129.296 72.5353 128.074 72.5353C126.851 72.5353 125.86 73.5262 125.86 74.7487ZM60.827 42.7396C57.7734 39.6855 52.5259 41.8572 52.5259 46.1784C52.5259 50.4996 57.7734 52.6713 60.827 49.6172C62.7257 47.7185 62.7257 44.6386 60.827 42.7396ZM57.3882 36.889C65.6348 36.889 69.7955 46.9077 63.9563 52.7469C62.7752 53.9281 61.2774 54.7928 59.6016 55.2026V82.0229H66.1616L70.2124 72.2705L70.2139 72.2712C70.3865 71.854 70.6882 71.4862 71.1029 71.2332C85.6579 62.3532 88.1431 42.1571 76.0361 30.0497C65.7377 19.7514 49.0387 19.751 38.7404 30.0497C30.4145 38.3756 28.5848 51.2861 34.3779 61.5977C36.5886 65.533 39.7784 68.8431 43.6149 71.1974C44.0277 71.4313 44.3682 71.7994 44.5644 72.2712L48.6152 82.0232H55.1752V55.203C48.2021 53.498 45.6811 44.7497 50.8201 39.6107C52.5012 37.9289 54.8237 36.889 57.3882 36.889ZM47.0013 145.75L12.8556 165.464L12.5985 165.612L12.5992 165.613C11.8035 166.028 10.9031 166.101 10.0771 165.88C8.94575 165.577 8.47209 165.017 7.88813 164.141L7.88777 164.141L0.461239 151.278C-0.492346 149.658 0.0801733 147.469 1.74055 146.515L36.0172 126.726L47.0013 145.75Z" fill="#2B2B2B"/>
</svg>
