<svg width="130" height="147" viewBox="0 0 130 147" fill="none" xmlns="http://www.w3.org/2000/svg">
<path d="M129.403 15.8243C129.403 11.5933 127.768 7.63972 124.766 4.63728C121.782 1.65352 117.81 0 113.579 0C109.348 0 105.394 1.65356 102.392 4.63728L85.3388 21.6901H0V147H100.221V51.5727L124.794 26.9993C127.797 23.9971 129.432 20.0248 129.432 15.8399L129.403 15.8243ZM72.0359 57.4035L74.022 47.1681L82.2714 55.4175L72.0359 57.4035ZM21.4678 65.773H50.1041V72.8676H21.4678V65.773ZM81.4954 124.755H21.4773V117.661H81.4954V124.755ZM81.4954 100.442H21.4773V93.3474H81.4954V100.442ZM89.3198 52.4328L76.9967 40.1097L102.28 14.8268L114.603 27.1499L89.3198 52.4328ZM119.777 21.9756L119.611 22.1419L107.288 9.81874L107.454 9.65246C110.742 6.36387 116.488 6.36387 119.777 9.65246C121.431 11.306 122.327 13.4862 122.327 15.8234C122.327 18.142 121.43 20.3126 119.777 21.9756Z" fill="#2B2B2B"/>
</svg>
