<svg width="155" height="155" viewBox="0 0 155 155" fill="none" xmlns="http://www.w3.org/2000/svg">
<path d="M123.837 57.2682L118.779 62.3261C122.368 69.6682 124.326 77.9893 124.326 86.7998C124.326 117.8 99.2 142.926 68.2 142.926C37.5263 142.763 12.2368 117.637 12.2368 86.6367C12.2368 55.6367 37.3632 30.5104 68.3632 30.5104C77.1737 30.5104 85.3316 32.4682 92.6737 36.0577L97.7316 30.9998V24.7998C88.7579 20.5577 78.8053 18.1104 68.3632 18.1104C30.6737 18.1104 0 48.784 0 86.4735C0 124.163 30.6737 154.837 68.3632 154.837C106.053 154.837 136.726 124.163 136.726 86.4735C136.726 76.0314 134.279 66.0788 130.037 57.1051H123.837V57.2682Z" fill="#2B2B2B"/>
<path d="M68.3637 55.7999C69.8321 55.7999 71.3006 55.9631 72.769 56.1262L82.8848 46.0104C78.3164 44.2157 73.5848 43.3999 68.3637 43.3999C44.5427 43.5631 25.29 62.8157 25.29 86.6367C25.29 110.458 44.5427 129.874 68.5269 129.874C92.3479 129.874 111.764 110.458 111.764 86.6367C111.764 81.5788 110.785 76.6841 109.153 72.1157L99.0374 82.2315C99.3637 83.6999 99.3637 85.1683 99.3637 86.6367C99.3637 103.605 85.4953 117.474 68.5269 117.474C51.3953 117.474 37.5269 103.605 37.5269 86.6367C37.5269 69.6683 51.3953 55.7999 68.3637 55.7999Z" fill="#2B2B2B"/>
<path d="M154.673 23.1684C154.02 21.3737 152.226 20.3947 150.431 20.3947H134.768V4.56842C134.768 2.77368 133.626 0.978947 131.994 0.326316C130.199 -0.326316 128.241 -9.72497e-08 126.936 1.30526L111.436 16.8053C110.62 17.6211 110.131 18.7632 110.131 20.0684V36.2211L75.8677 70.3211C73.5835 69.1789 70.9729 68.5263 68.3624 68.5263C58.4098 68.5263 50.415 76.5211 50.415 86.4737C50.415 96.4263 58.4098 104.421 68.3624 104.421C78.315 104.421 86.3098 96.4263 86.3098 86.4737C86.3098 83.7 85.6571 81.2526 84.515 78.9684L118.778 44.8684H134.931C136.073 44.8684 137.378 44.379 138.194 43.5632L153.694 28.0632C154.999 26.7579 155.326 24.8 154.673 23.1684Z" fill="#2B2B2B"/>
</svg>
