<svg width="165" height="164" viewBox="0 0 165 164" fill="none" xmlns="http://www.w3.org/2000/svg">
<path d="M114.192 114.524H50.5534C37.1664 114.524 26.3103 125.381 26.3103 138.767C26.3103 152.154 37.167 163.011 50.5534 163.011H114.192C127.579 163.011 138.435 152.154 138.435 138.767C138.435 125.381 127.578 114.524 114.192 114.524ZM97.3152 131.386L76.4298 148.325C76.0661 148.626 75.6018 148.797 75.1298 148.797C74.5881 148.797 74.0697 148.58 73.6828 148.201L67.2833 142.01H67.291C66.4708 141.213 66.463 139.906 67.26 139.085C68.0571 138.273 69.3648 138.257 70.1774 139.054L75.2536 144.007L94.7539 128.12C95.1718 127.741 95.7289 127.555 96.2938 127.594C96.8587 127.641 97.3772 127.911 97.7331 128.352C98.0891 128.794 98.2516 129.358 98.1819 129.916C98.1045 130.48 97.8105 130.983 97.3539 131.316L97.3152 131.386ZM24.2432 48.4862H140.502C153.889 48.4862 164.745 37.6295 164.745 24.2431C164.745 10.8567 153.889 0 140.502 0H24.2432C10.8562 0 5.85652e-05 10.8567 5.85652e-05 24.2431C5.85652e-05 37.6295 10.8568 48.4862 24.2432 48.4862ZM68.7298 17.9436H87.4252V17.9514C88.5704 17.9514 89.4913 18.8722 89.4913 20.0098C89.4913 21.155 88.5705 22.0759 87.4252 22.0759H68.7298C67.5923 22.0759 66.6714 21.1551 66.6714 20.0098C66.6714 18.8723 67.5922 17.9514 68.7298 17.9514V17.9436ZM68.7298 26.4014L133.715 26.4091C134.853 26.4091 135.774 27.3299 135.774 28.4753C135.774 29.6128 134.853 30.5337 133.715 30.5337H68.7298C67.5923 30.5337 66.6714 29.6128 66.6714 28.4753C66.6714 27.33 67.5922 26.4091 68.7298 26.4091V26.4014ZM32.6009 23.5615C30.8521 21.3869 30.5115 18.4078 31.711 15.8929C32.9181 13.3781 35.4562 11.7763 38.242 11.7763C41.0356 11.7763 43.5736 13.3781 44.7731 15.8929C45.9803 18.4078 45.632 21.3869 43.891 23.5615C48.0696 25.6817 50.7083 29.9764 50.716 34.6658C50.716 35.2075 50.4993 35.7336 50.1124 36.1206C49.7255 36.5075 49.1993 36.7241 48.6576 36.7241H27.8574C26.7122 36.7241 25.7913 35.8033 25.7913 34.6657C25.7758 29.9686 28.4145 25.674 32.6009 23.5615ZM46.3207 32.5996H30.1635C30.9683 28.7769 34.3421 26.0377 38.2421 26.0377C42.1499 26.0377 45.5237 28.7769 46.3207 32.5996ZM38.2498 22.2847H38.2575C37.004 22.2847 35.8742 21.5264 35.3944 20.3734C34.9147 19.2127 35.1778 17.8817 36.0677 16.9996C36.9498 16.1097 38.2808 15.8466 39.4415 16.3264C40.5944 16.8062 41.3528 17.9359 41.3528 19.1895C41.2986 20.8609 39.9289 22.1919 38.2575 22.1996L38.2498 22.2847ZM37.2206 77.3794L27.602 70.5699H48.8816L39.263 77.3794C38.6517 77.805 37.8396 77.805 37.2206 77.3794ZM53.4862 72.4425C53.4939 72.5121 53.4939 72.5817 53.4862 72.6514V86.1236C53.4862 86.673 53.2695 87.1992 52.8826 87.5861C52.4957 87.973 51.9695 88.1897 51.4201 88.1897H25.1326C23.9874 88.1897 23.0665 87.2688 23.0665 86.1235V72.6513C23.0587 72.5817 23.0587 72.512 23.0665 72.4424L34.8053 80.6991C36.8481 82.1306 39.5565 82.1306 41.5994 80.6991L53.4862 72.4425ZM140.609 55.1322H24.2431C10.8561 55.1322 0 65.9889 0 79.3753C0 92.77 10.8567 103.626 24.2431 103.626H140.502C153.889 103.626 164.745 92.7696 164.745 79.3753C164.745 65.9883 153.889 55.1322 140.502 55.1322H140.609ZM68.8387 73.0847H87.5341C88.6716 73.0847 89.5925 74.0055 89.5925 75.1508C89.5925 76.2884 88.6717 77.2093 87.5341 77.2093H68.7303C67.5928 77.2093 66.6719 76.2884 66.6719 75.1508C66.6719 74.0056 67.5927 73.0847 68.7303 73.0847H68.8387ZM57.6106 86.1234C57.6106 89.5438 54.8404 92.314 51.42 92.314H25.1326C21.7122 92.314 18.942 89.5438 18.942 86.1234V72.6513C18.942 69.2309 21.7122 66.4607 25.1326 66.4607H51.42C54.8404 66.4607 57.6106 69.2309 57.6106 72.6513V86.1234ZM133.715 85.6282H68.7297C67.5922 85.6282 66.6713 84.7074 66.6713 83.5698C66.6713 82.4245 67.5921 81.5036 68.7297 81.5036H133.715C134.853 81.5036 135.774 82.4245 135.774 83.5698C135.774 84.7073 134.853 85.6282 133.715 85.6282Z" fill="#2B2B2B"/>
</svg>
