<svg width="133" height="67" viewBox="0 0 133 67" fill="none" xmlns="http://www.w3.org/2000/svg">
<path d="M44.2738 51.793C44.2738 53.0558 44.1172 54.1935 43.8041 55.2059C43.5015 56.2078 43.0422 57.0636 42.4265 57.7733C41.8211 58.4726 41.0644 59.0153 40.1564 59.4015C39.2589 59.7772 38.2152 59.9651 37.0254 59.9651C36.4826 59.9651 35.9451 59.9286 35.4129 59.8555C34.8806 59.7929 34.3274 59.6885 33.7534 59.5424L33.9412 57.3506C33.9726 57.1419 34.0508 56.9749 34.1761 56.8497C34.3118 56.7244 34.5048 56.6618 34.7553 56.6618C34.9432 56.6618 35.1832 56.7035 35.4755 56.787C35.7781 56.8601 36.1695 56.8966 36.6496 56.8966C37.2863 56.8966 37.8499 56.8027 38.3404 56.6148C38.8414 56.427 39.2589 56.1347 39.5928 55.7381C39.9373 55.3311 40.193 54.8145 40.36 54.1883C40.5374 53.5516 40.6261 52.7845 40.6261 51.8869V37.1709H44.2738V51.793ZM63.4761 56.7557L63.4604 59.7146H49.4019V37.1709H63.4604V40.1297H53.0809V46.9242H61.3783V49.7891H53.0809V56.7557H63.4761ZM97.0779 37.1709L90.0643 59.7146H86.761L81.4695 43.5269C81.4069 43.3495 81.3443 43.1564 81.2816 42.9477C81.2295 42.739 81.1773 42.5146 81.1251 42.2745C81.0729 42.5146 81.0155 42.739 80.9529 42.9477C80.9007 43.1564 80.8433 43.3495 80.7807 43.5269L75.4422 59.7146H72.1389L65.1253 37.1709H68.1937C68.5069 37.1709 68.7678 37.2491 68.9765 37.4057C69.1957 37.5518 69.3418 37.7553 69.4149 38.0162L73.6418 52.4662C73.7253 52.7793 73.8036 53.1185 73.8766 53.4838C73.9497 53.8491 74.0228 54.23 74.0958 54.6266C74.1689 54.23 74.2472 53.8491 74.3307 53.4838C74.4246 53.108 74.5237 52.7688 74.6281 52.4662L79.4656 38.0162C79.5387 37.8075 79.6848 37.6144 79.904 37.437C80.1231 37.2596 80.3841 37.1709 80.6867 37.1709H81.7513C82.0748 37.1709 82.3358 37.2544 82.5341 37.4213C82.7324 37.5779 82.8837 37.7762 82.9881 38.0162L87.8099 52.4662C87.9143 52.7688 88.0082 53.0976 88.0917 53.4524C88.1857 53.7969 88.2692 54.1622 88.3422 54.5483C88.4153 54.1622 88.4831 53.7969 88.5457 53.4524C88.6188 53.0976 88.6971 52.7688 88.7806 52.4662L92.9919 38.0162C93.0545 37.7866 93.1954 37.5883 93.4146 37.4213C93.6442 37.2544 93.9103 37.1709 94.213 37.1709H97.0779ZM114.203 56.7557L114.188 59.7146H100.129V37.1709H114.188V40.1297H103.808V46.9242H112.105V49.7891H103.808V56.7557H114.203ZM131.195 56.6461V59.7146H118.169V37.1709H121.833V56.6461H131.195Z" fill="#2B2B2B"/>
<path d="M32.8989 0.0698763L32.0304 0.0698762C24.6048 0.0917376 17.4162 2.68531 11.6872 7.40944C5.95815 12.1336 2.04262 18.6965 0.606582 25.9819C-0.829458 33.2672 0.302675 40.8251 3.81043 47.37C7.31819 53.9148 12.9849 59.0423 19.8467 61.8804C17.2343 59.4345 15.4175 56.2598 14.6322 52.7683C13.8469 49.2768 14.1293 45.6299 15.4429 42.301C16.7565 38.9721 19.0406 36.115 21.9985 34.1006C24.9565 32.0863 28.4517 31.0077 32.0304 31.0049C36.1326 31.12 40.1126 29.6009 43.0947 26.7816C46.0769 23.9623 47.817 20.0739 47.9321 15.9717C48.0473 11.8694 46.5282 7.88945 43.7089 4.90728C40.8896 1.92512 37.0012 0.185058 32.8989 0.0698763Z" fill="#2B2B2B"/>
</svg>
