<svg width="110" height="56" viewBox="0 0 110 56" fill="none" xmlns="http://www.w3.org/2000/svg">
<path d="M36.785 43.8542C36.785 44.9034 36.6549 45.8486 36.3948 46.6898C36.1433 47.5222 35.7618 48.2333 35.2501 48.823C34.7472 49.404 34.1185 49.8549 33.3641 50.1757C32.6183 50.4879 31.7512 50.644 30.7626 50.644C30.3117 50.644 29.8651 50.6137 29.4228 50.553C28.9806 50.5009 28.521 50.4142 28.044 50.2928L28.2001 48.4718C28.2261 48.2983 28.2912 48.1596 28.3952 48.0555C28.508 47.9515 28.6684 47.8995 28.8765 47.8995C29.0326 47.8995 29.2321 47.9341 29.4749 48.0035C29.7263 48.0642 30.0515 48.0946 30.4504 48.0946C30.9794 48.0946 31.4476 48.0165 31.8552 47.8604C32.2714 47.7043 32.6183 47.4615 32.8958 47.132C33.182 46.7938 33.3944 46.3646 33.5332 45.8443C33.6806 45.3153 33.7543 44.678 33.7543 43.9322V31.7052H36.785V43.8542ZM52.7394 47.9775L52.7264 50.4359H41.0457V31.7052H52.7264V34.1636H44.1025V39.8089H50.9964V42.1892H44.1025V47.9775H52.7394ZM80.6577 31.7052L74.8304 50.4359H72.0859L67.6894 36.9863C67.6373 36.8388 67.5853 36.6784 67.5333 36.505C67.4899 36.3315 67.4466 36.1451 67.4032 35.9457C67.3598 36.1451 67.3122 36.3315 67.2601 36.505C67.2168 36.6784 67.1691 36.8388 67.117 36.9863L62.6815 50.4359H59.937L54.1096 31.7052H56.6591C56.9192 31.7052 57.136 31.7703 57.3095 31.9004C57.4916 32.0218 57.613 32.1909 57.6737 32.4076L61.1857 44.4135C61.255 44.6736 61.3201 44.9554 61.3808 45.259C61.4415 45.5625 61.5022 45.879 61.5629 46.2085C61.6236 45.879 61.6886 45.5625 61.758 45.259C61.836 44.9468 61.9184 44.6649 62.0051 44.4135L66.0244 32.4076C66.0851 32.2342 66.2065 32.0738 66.3886 31.9264C66.5707 31.779 66.7875 31.7052 67.039 31.7052H67.9235C68.1923 31.7052 68.4091 31.7746 68.5739 31.9134C68.7386 32.0434 68.8644 32.2082 68.9511 32.4076L72.9574 44.4135C73.0441 44.6649 73.1221 44.9381 73.1915 45.2329C73.2695 45.5191 73.3389 45.8226 73.3996 46.1435C73.4603 45.8226 73.5167 45.5191 73.5687 45.2329C73.6294 44.9381 73.6944 44.6649 73.7638 44.4135L77.2628 32.4076C77.3148 32.2169 77.4319 32.0521 77.614 31.9134C77.8048 31.7746 78.0259 31.7052 78.2774 31.7052H80.6577ZM94.8864 47.9775L94.8734 50.4359H83.1928V31.7052H94.8734V34.1636H86.2495V39.8089H93.1434V42.1892H86.2495V47.9775H94.8864ZM109.004 47.8864V50.4359H98.1818V31.7052H101.225V47.8864H109.004Z" fill="white"/>
<path d="M27.3341 0.636199L26.6124 0.636199C20.4428 0.65436 14.4701 2.80926 9.71009 6.73433C4.9501 10.6594 1.69685 16.1123 0.503703 22.1654C-0.68944 28.2185 0.251199 34.498 3.16565 39.9358C6.0801 45.3737 10.7883 49.6339 16.4895 51.9919C14.319 49.9598 12.8094 47.322 12.157 44.4211C11.5045 41.5202 11.7392 38.4901 12.8306 35.7243C13.922 32.9584 15.8197 30.5846 18.2774 28.9109C20.735 27.2373 23.639 26.3411 26.6124 26.3388C30.0208 26.4345 33.3276 25.1723 35.8053 22.8299C38.2831 20.4874 39.7288 17.2567 39.8245 13.8483C39.9202 10.4399 38.658 7.13315 36.3156 4.6554C33.9732 2.17764 30.7424 0.731898 27.3341 0.636199Z" fill="white"/>
</svg>
